<svg xmlns="http://www.w3.org/2000/svg" version="1.1" xmlns:xlink="http://www.w3.org/1999/xlink" width="640" height="640"><svg id="SvgjsSvg1041" xmlns="http://www.w3.org/2000/svg" version="1.1" viewBox="0 0 640 640">
  <!-- Generator: Adobe Illustrator 30.0.0, SVG Export Plug-In . SVG Version: 2.1.1 Build 123)  -->
  <defs>
    <style>
      .st0 {
        fill: #fff;
      }
    </style>
  </defs>
  <path class="st0" d="M232.5,136l87.5,93,87.5-93h-175ZM447.9,163.1l-72.3,76.9h129l-56.6-76.9h-.1ZM497.9,288H142.1l177.9,196.3,177.9-196.3ZM135.5,240h129l-72.3-76.9-56.6,76.9h-.1ZM569.8,280.1l-232,256c-4.5,5-11,7.9-17.8,7.9s-13.2-2.9-17.8-7.9l-232-256c-7.7-8.5-8.3-21.2-1.5-30.4l112-152c4.5-6.1,11.7-9.8,19.3-9.8h240c7.6,0,14.8,3.6,19.3,9.8l112,152c6.8,9.2,6.1,21.9-1.5,30.4Z"></path>
</svg><style>@media (prefers-color-scheme: light) { :root { filter: contrast(1) brightness(0.1); } }
@media (prefers-color-scheme: dark) { :root { filter: contrast(0.3846153846153846) brightness(4.5); } }
</style></svg>